<?xml version="1.0" encoding="UTF-8" standalone="no"?>
<!-- Created with Inkscape (http://www.inkscape.org/) -->

<svg
   xmlns:dc="http://purl.org/dc/elements/1.1/"
   xmlns:cc="http://creativecommons.org/ns#"
   xmlns:rdf="http://www.w3.org/1999/02/22-rdf-syntax-ns#"
   xmlns:svg="http://www.w3.org/2000/svg"
   xmlns="http://www.w3.org/2000/svg"
   xmlns:xlink="http://www.w3.org/1999/xlink"
   xmlns:sodipodi="http://sodipodi.sourceforge.net/DTD/sodipodi-0.dtd"
   xmlns:inkscape="http://www.inkscape.org/namespaces/inkscape"
   width="744.09448819"
   height="1052.3622047"
   id="svg2"
   version="1.1"
   inkscape:version="0.48.3.1 r9886"
   sodipodi:docname="TransC.svg"
   inkscape:export-filename="C:\Documents and Settings\Vas\My Documents\Pictures\wisp-graphic\Inventory-Things\TransporterControlRod-HQ.png"
   inkscape:export-xdpi="9.8823547"
   inkscape:export-ydpi="9.8823547">
  <defs
     id="defs4">
    <linearGradient
       id="linearGradient3806">
      <stop
         id="stop3808"
         offset="0"
         style="stop-color:#1b002b;stop-opacity:1;" />
      <stop
         style="stop-color:#171c58;stop-opacity:1;"
         offset="0.13913901"
         id="stop3810" />
      <stop
         style="stop-color:#144aa5;stop-opacity:1;"
         offset="0.25563151"
         id="stop3812" />
      <stop
         style="stop-color:#0d7175;stop-opacity:1;"
         offset="0.71975654"
         id="stop3814" />
      <stop
         id="stop3816"
         offset="1"
         style="stop-color:#a0e2ff;stop-opacity:1;" />
    </linearGradient>
    <linearGradient
       id="linearGradient3784">
      <stop
         style="stop-color:#1b002b;stop-opacity:1;"
         offset="0"
         id="stop3786" />
      <stop
         id="stop3796"
         offset="0"
         style="stop-color:#171c58;stop-opacity:1;" />
      <stop
         id="stop3794"
         offset="0.13913901"
         style="stop-color:#144aa5;stop-opacity:1;" />
      <stop
         id="stop3792"
         offset="0.65997887"
         style="stop-color:#0d7175;stop-opacity:1;" />
      <stop
         style="stop-color:#a0e2ff;stop-opacity:1;"
         offset="1"
         id="stop3788" />
    </linearGradient>
    <linearGradient
       inkscape:collect="always"
       xlink:href="#linearGradient3784"
       id="linearGradient3790"
       x1="292.41623"
       y1="644.2251"
       x2="296.18149"
       y2="334.2583"
       gradientUnits="userSpaceOnUse"
       gradientTransform="translate(35.304102,-100.02829)" />
    <linearGradient
       inkscape:collect="always"
       xlink:href="#linearGradient3806"
       id="linearGradient3804"
       x1="600.89862"
       y1="560.56042"
       x2="336.94949"
       y2="299.48102"
       gradientUnits="userSpaceOnUse"
       gradientTransform="matrix(1,0,0,1.0072549,33.223788,-103.59706)" />
    <filter
       inkscape:collect="always"
       id="filter3908"
       x="-0.15391779"
       width="1.3078356"
       y="-0.066456737"
       height="1.1329135">
      <feGaussianBlur
         inkscape:collect="always"
         stdDeviation="2.158799"
         id="feGaussianBlur3910" />
    </filter>
    <filter
       inkscape:collect="always"
       id="filter3912"
       x="-0.11557211"
       width="1.2311442"
       y="-0.064809106"
       height="1.1296182">
      <feGaussianBlur
         inkscape:collect="always"
         stdDeviation="2.158799"
         id="feGaussianBlur3914" />
    </filter>
    <filter
       inkscape:collect="always"
       id="filter3916">
      <feGaussianBlur
         inkscape:collect="always"
         stdDeviation="2.158799"
         id="feGaussianBlur3918" />
    </filter>
    <filter
       inkscape:collect="always"
       id="filter3920">
      <feGaussianBlur
         inkscape:collect="always"
         stdDeviation="2.158799"
         id="feGaussianBlur3922" />
    </filter>
  </defs>
  <sodipodi:namedview
     id="base"
     pagecolor="#ffffff"
     bordercolor="#666666"
     borderopacity="1.0"
     inkscape:pageopacity="0.0"
     inkscape:pageshadow="2"
     inkscape:zoom="0.33990385"
     inkscape:cx="396.4135"
     inkscape:cy="330.14657"
     inkscape:document-units="px"
     inkscape:current-layer="layer1"
     showgrid="false"
     inkscape:window-width="1024"
     inkscape:window-height="712"
     inkscape:window-x="-4"
     inkscape:window-y="-4"
     inkscape:window-maximized="1" />
  <metadata
     id="metadata7">
    <rdf:RDF>
      <cc:Work
         rdf:about="">
        <dc:format>image/svg+xml</dc:format>
        <dc:type
           rdf:resource="http://purl.org/dc/dcmitype/StillImage" />
        <dc:title></dc:title>
      </cc:Work>
    </rdf:RDF>
  </metadata>
  <g
     inkscape:label="Layer 1"
     inkscape:groupmode="layer"
     id="layer1">
    <path
       style="fill:url(#linearGradient3804);fill-opacity:1;stroke:none"
       d="m 337.03395,247.46912 133.70549,288.8253 97.70738,-89.52604 z"
       id="path2992-1"
       inkscape:connector-curvature="0"
       sodipodi:nodetypes="cccc" />
    <path
       style="fill:url(#linearGradient3790);fill-opacity:1;stroke:none"
       d="M 338.16124,246.61961 163.87553,538.04818 472.44696,535.19104 z"
       id="path2992"
       inkscape:connector-curvature="0" />
    <path
       style="fill:#20c1a7;fill-opacity:0.63005784;fill-rule:nonzero;stroke:none;filter:url(#filter3908)"
       id="path3852"
       d="m 264.76334,417.8131 c -0.93699,4.83562 -1.0159,9.77606 -1.39134,14.67055 -1.38701,18.08184 -0.002,-3.0986 -1.18276,15.90984 -0.76495,10.91457 -0.87339,22.1067 -4.42001,32.56778 -0.36003,0.66172 -0.65529,1.36302 -1.08009,1.98514 -0.65332,0.9568 -1.81984,2.10048 -2.82336,2.69712 -5.48411,3.26052 -11.53827,6.99169 -17.52368,9.88746 -0.45365,0.0805 -0.90114,0.27046 -1.36095,0.24137 -2.48082,-0.15697 -3.11856,-3.55878 -3.58159,-5.41214 -0.0993,-0.57185 -0.19853,-1.1437 -0.29779,-1.71554 0,0 13.20331,-7.02953 13.20331,-7.02953 l 0,0 c 0.10065,0.52699 0.2013,1.05399 0.30195,1.58098 0.338,1.21106 0.32685,1.37269 0.82848,2.46131 0.60201,1.30644 1.41071,1.04805 2.6064,0.51969 4.59941,-2.34868 11.89815,-6.79842 -8.01564,4.89735 -0.54668,0.32108 1.12104,-0.59885 1.64082,-0.96185 1.6974,-1.18538 1.65003,-1.40118 2.97783,-3.09623 4.95193,-10.27691 5.64546,-21.80464 6.41679,-33.02057 0.33195,-9.72375 0.18957,-19.46078 -0.0296,-29.18631 0,0 13.73125,-6.99642 13.73125,-6.99642 z"
       inkscape:connector-curvature="0" />
    <path
       style="fill:#20c1a7;fill-opacity:0.63005784;fill-rule:nonzero;stroke:none;filter:url(#filter3912)"
       id="path3854"
       d="m 264.76334,415.73279 c -0.24229,3.31196 0.55982,6.59959 1.51658,9.74309 1.828,6.52026 5.11726,12.47701 8.28309,18.41891 1.8705,3.69765 3.79579,7.36868 5.4967,11.14839 1.69917,3.365 3.32354,6.76318 4.82767,10.21975 1.11751,3.69623 2.44133,7.30693 3.78474,10.92654 1.19545,2.56853 1.93427,5.40323 3.32325,7.87665 0.0768,0.0487 0.24173,0.23628 0.23038,0.14606 -0.62074,-4.93338 -8.89546,4.44679 -13.30654,6.74155 -0.28787,0.14975 0.16825,-0.62836 0.21471,-0.94951 0.1778,-1.22897 0.21533,-2.64941 0.27749,-3.87083 0.85729,-7.77876 0.98873,-15.60301 1.10225,-23.41939 -0.0242,-5.39127 0.8254,-10.71161 1.37626,-16.05778 0.40357,-3.58234 0.45141,-7.18517 0.56374,-10.78394 0.0215,-3.13414 -0.0271,-6.26824 -0.0497,-9.4023 -0.0223,-2.03349 -0.0445,-4.06697 -0.059,-6.10053 0,0 13.51723,-6.88861 13.51723,-6.88861 l 0,0 c -0.0115,2.05039 -0.029,4.10074 -0.0435,6.15111 -0.0119,3.16519 -0.0416,6.3298 -0.0803,9.49487 0.012,3.66765 -0.15149,7.34521 -0.61812,10.98469 -0.72687,5.3876 -1.66214,10.75465 -1.94472,16.19176 -0.28227,7.7091 -0.75624,15.418 -0.59401,23.13599 0.0612,1.88895 0.0517,2.01278 0.15294,3.75352 0.021,0.36062 0.3649,0.8675 0.0736,1.0812 -4.31317,3.16467 -11.1872,13.29359 -14.13127,7.27993 -0.91479,-2.7607 -2.02406,-5.44556 -2.97113,-8.19559 -1.20564,-3.63009 -2.81194,-7.10224 -3.92737,-10.76055 -1.34722,-3.50538 -2.82804,-6.94951 -4.5875,-10.27097 -1.81345,-3.72191 -3.73403,-7.39675 -5.2218,-11.26772 -2.8326,-6.17733 -5.98477,-12.20089 -8.6029,-18.47502 -1.13032,-3.17467 -1.91132,-6.51288 -2.33409,-9.85485 0,0 13.73125,-6.99642 13.73125,-6.99642 z"
       inkscape:connector-curvature="0" />
    <path
       style="fill:#20c1a7;fill-opacity:0.63005784;fill-rule:nonzero;stroke:none;filter:url(#filter3916)"
       id="path3856"
       d="m 326.17215,418.32664 c 1.69502,1.83324 2.61762,4.09988 3.76503,6.28142 1.80297,3.42793 3.3236,5.97108 5.29245,9.37923 5.93551,9.62083 12.53151,18.80181 18.67918,28.28373 3.9545,6.13125 7.97951,12.24907 11.48515,18.65382 1.80561,3.59566 3.57532,7.19113 5.73469,10.58951 0.45167,0.71009 0.79073,1.71457 1.69373,1.92426 0,0 -13.01124,8.23371 -13.01124,8.23371 l 0,0 c -0.68629,-0.7917 -1.19279,-1.68028 -1.66806,-2.6165 -2.06782,-3.50662 -3.6391,-7.22913 -5.28653,-10.94658 -3.36667,-6.44426 -7.03581,-12.72449 -10.87401,-18.89894 -5.79778,-9.68925 -12.04774,-19.09698 -18.26062,-28.523 -3.38689,-4.99271 -6.55118,-10.29266 -10.86242,-14.55985 0,0 13.31265,-7.80081 13.31265,-7.80081 z"
       inkscape:connector-curvature="0" />
    <path
       style="fill:#20c1a7;fill-opacity:0.63005784;fill-rule:nonzero;stroke:none;filter:url(#filter3920)"
       id="path3858"
       d="m 371.66514,419.37139 c -3.23576,5.05234 -6.86051,9.83824 -10.55804,14.55775 -4.43516,5.70224 -9.37065,10.97944 -14.24777,16.29826 -4.36645,4.45996 -8.46412,9.14466 -12.27363,14.08663 -2.99269,4.06841 -5.66577,8.37326 -8.28546,12.6902 -0.69537,1.13875 -1.4231,2.256 -2.17125,3.36044 0,0 -13.93227,5.98127 -13.93227,5.98127 l 0,0 c 0.91995,-1.0523 1.6504,-2.21091 2.492,-3.32759 2.77732,-4.44951 5.76035,-8.7838 8.79393,-13.05829 3.6708,-5.02527 7.64228,-9.81433 12.10369,-14.16459 4.91841,-5.40211 10.14751,-10.53412 14.6283,-16.32366 3.33388,-4.48669 6.9363,-8.86939 9.44148,-13.89142 0,0 14.00902,-6.209 14.00902,-6.209 z"
       inkscape:connector-curvature="0" />
  </g>
</svg>
